<svg width="104" height="104" viewBox="0 0 104 104" fill="none" xmlns="http://www.w3.org/2000/svg">
<g filter="url(#filter0_d_396_420)">
<path fill-rule="evenodd" clip-rule="evenodd" d="M52 72C71.8823 72 88 55.8823 88 36C88 16.1177 71.8823 0 52 0C32.1177 0 16 16.1177 16 36C16 55.8823 32.1177 72 52 72ZM80.375 36C80.375 51.6711 67.6711 64.375 52 64.375C36.3289 64.375 23.625 51.6711 23.625 36C23.625 20.3289 36.3289 7.625 52 7.625C67.6711 7.625 80.375 20.3289 80.375 36ZM82.375 36C82.375 52.7757 68.7757 66.375 52 66.375C35.2243 66.375 21.625 52.7757 21.625 36C21.625 19.2243 35.2243 5.625 52 5.625C68.7757 5.625 82.375 19.2243 82.375 36Z" fill="white"/>
</g>
<defs>
<filter id="filter0_d_396_420" x="0" y="0" width="104" height="104" filterUnits="userSpaceOnUse" color-interpolation-filters="sRGB">
<feFlood flood-opacity="0" result="BackgroundImageFix"/>
<feColorMatrix in="SourceAlpha" type="matrix" values="0 0 0 0 0 0 0 0 0 0 0 0 0 0 0 0 0 0 127 0" result="hardAlpha"/>
<feOffset dy="16"/>
<feGaussianBlur stdDeviation="8"/>
<feComposite in2="hardAlpha" operator="out"/>
<feColorMatrix type="matrix" values="0 0 0 0 0 0 0 0 0 0 0 0 0 0 0 0 0 0 0.16 0"/>
<feBlend mode="normal" in2="BackgroundImageFix" result="effect1_dropShadow_396_420"/>
<feBlend mode="normal" in="SourceGraphic" in2="effect1_dropShadow_396_420" result="shape"/>
</filter>
</defs>
</svg>
